<svg width="24" height="24" viewBox="0 0 24 24" xmlns="http://www.w3.org/2000/svg">
<path fill-rule="evenodd" clip-rule="evenodd" d="M6.5 5H4.5C4.22 5 4 4.78 4 4.5V2.5C4 2.22 4.22 2 4.5 2H6.5C6.78 2 7 2.22 7 2.5V4.5C7 4.78 6.78 5 6.5 5ZM4.5 6H19.5C19.78 6 20 6.22 20 6.5V21.5C20 21.78 19.78 22 19.5 22H4.5C4.22 22 4 21.78 4 21.5V6.5C4 6.22 4.22 6 4.5 6ZM7 14C7 16.76 9.24 19 12 19C14.76 19 17 16.76 17 14C17 11.24 14.76 9 12 9C9.24 9 7 11.24 7 14ZM12 18C14.2091 18 16 16.2091 16 14C16 11.7909 14.2091 10 12 10C9.79086 10 8 11.7909 8 14C8 16.2091 9.79086 18 12 18ZM8.5 2H19.5C19.78 2 20 2.22 20 2.5V4.5C20 4.78 19.78 5 19.5 5H8.5C8.22 5 8 4.78 8 4.5V2.5C8 2.22 8.22 2 8.5 2Z"/>
</svg>
