<svg width="24" height="24" viewBox="0 0 24 24" fill="none" xmlns="http://www.w3.org/2000/svg">
<path d="M9.75935 5.0834C8.25406 4.36471 6.15007 4.01265 3.33322 4.00015C3.06757 3.99654 2.80712 4.07401 2.58662 4.22222C2.40563 4.34455 2.25747 4.50949 2.15518 4.70252C2.05289 4.89555 1.9996 5.11075 2 5.32921V17.249C2 18.0548 2.57329 18.6627 3.33322 18.6627C6.29423 18.6627 9.26439 18.9393 11.0434 20.6208C11.0677 20.644 11.0983 20.6594 11.1314 20.6653C11.1644 20.6711 11.1985 20.6672 11.2293 20.6539C11.2601 20.6405 11.2863 20.6185 11.3046 20.5904C11.323 20.5623 11.3327 20.5294 11.3326 20.4959V6.45078C11.3326 6.35602 11.3124 6.26235 11.2731 6.1761C11.2339 6.08984 11.1766 6.01302 11.1051 5.95082C10.6976 5.60245 10.2449 5.31067 9.75935 5.0834ZM21.4117 4.22097C21.1911 4.07313 20.9306 3.99609 20.6651 4.00015C17.8483 4.01265 15.7443 4.36304 14.239 5.0834C13.7534 5.31026 13.3007 5.60146 12.8928 5.94916C12.8215 6.01146 12.7643 6.08832 12.7252 6.17455C12.686 6.26079 12.6658 6.3544 12.6658 6.44911V20.495C12.6658 20.5273 12.6753 20.5588 12.6931 20.5857C12.7109 20.6125 12.7363 20.6335 12.766 20.6461C12.7958 20.6586 12.8285 20.662 12.8602 20.656C12.8919 20.6499 12.9211 20.6347 12.9441 20.6121C14.0136 19.5497 15.8905 18.6614 20.6668 18.6618C21.0204 18.6618 21.3595 18.5214 21.6095 18.2714C21.8595 18.0213 22 17.6822 22 17.3286V5.32962C22.0005 5.11074 21.9471 4.8951 21.8445 4.70174C21.7419 4.50839 21.5932 4.34327 21.4117 4.22097Z" fill="currentColor"/>
</svg>
