<svg width="24" height="24" viewBox="0 0 24 24" xmlns="http://www.w3.org/2000/svg">
<path fill-rule="evenodd" clip-rule="evenodd" d="M20.9096 7.9898C20.9096 10.2041 16.9206 11.9991 12 11.9991C7.07931 11.9991 3.09033 10.2041 3.09033 7.9898C3.09033 5.77551 7.07931 3.98047 12 3.98047C16.9206 3.98047 20.9096 5.77551 20.9096 7.9898ZM12 12.8903C15.5014 12.8903 18.4594 12.0617 20.179 10.752C20.4819 10.5204 20.9096 10.7164 20.9096 11.0906V15.9909C20.9096 16.6769 20.5265 17.3184 19.8493 17.8797C19.5642 18.1114 19.1277 17.8975 19.1277 17.5233V13.8258C19.1277 13.5764 18.9317 13.3804 18.6822 13.3804C18.4327 13.3804 18.2367 13.5764 18.2367 13.8258V18.5479C18.2367 18.735 18.1298 18.8954 17.9605 18.9667C17.6665 19.0825 17.3547 19.1983 17.025 19.2964C16.7399 19.3855 16.4548 19.1627 16.4548 18.8687V14.7168C16.4548 14.4673 16.2588 14.2713 16.0093 14.2713C15.7598 14.2713 15.5638 14.4673 15.5638 14.7168V19.2874C15.5638 19.5102 15.4124 19.6973 15.1985 19.7329C14.8956 19.7864 14.5927 19.8309 14.2808 19.8666C14.0225 19.9022 13.7819 19.6884 13.7819 19.4211V15.091C13.7819 14.8415 13.5859 14.6455 13.3364 14.6455C13.0869 14.6455 12.8909 14.8415 12.8909 15.091V19.9824L12.8906 19.9824C12.5967 19.9913 12.3028 20.0002 12 20.0002C11.6972 20.0002 11.4033 19.9913 11.1094 19.9824L11.109 19.9824V15.091C11.109 14.8415 10.913 14.6455 10.6635 14.6455C10.414 14.6455 10.218 14.8415 10.218 15.091V19.4211C10.218 19.6884 9.98639 19.9022 9.7191 19.8666C9.40726 19.8309 9.09542 19.7864 8.80141 19.7329C8.58757 19.6973 8.43611 19.5013 8.43611 19.2874V14.7168C8.43611 14.4762 8.2401 14.2713 7.99063 14.2713C7.74116 14.2713 7.54515 14.4673 7.54515 14.7168V18.8687C7.54515 19.1627 7.26004 19.3855 6.97493 19.2964C6.64528 19.1983 6.33344 19.0825 6.03942 18.9667C5.87014 18.8954 5.76322 18.7261 5.76322 18.5479V13.8258C5.76322 13.5853 5.56721 13.3804 5.31774 13.3804C5.06827 13.3804 4.87226 13.5764 4.87226 13.8258V17.5322C4.87226 17.8975 4.43569 18.1203 4.15058 17.8797C3.47345 17.3184 3.09033 16.6769 3.09033 15.9909V11.0906C3.09033 10.7164 3.51799 10.5204 3.82092 10.752C5.54048 12.0617 8.49848 12.8903 12 12.8903Z"/>
</svg>
