<svg width="24" height="24" viewBox="0 0 24 24" xmlns="http://www.w3.org/2000/svg">
<path d="M17.85 2.15L21.85 6.15C22.05 6.34 22.05 6.66 21.86 6.86L19.86 8.86C19.66 9.06 19.35 9.06 19.15 8.86L18 7.71V19H6V7.71L4.86 8.86C4.66 9.06 4.35 9.06 4.15 8.86L2.15 6.86C1.95 6.66 1.95 6.35 2.15 6.15L6.15 2.15C6.24 2.05 6.37 2 6.5 2H8.5C8.78 2 9 2.22 9 2.5C9 4.15 10.35 5.5 12 5.5C13.65 5.5 15 4.15 15 2.5C15 2.22 15.22 2 15.5 2H17.5C17.63 2 17.76 2.05 17.85 2.15Z"/>
<path d="M6 20V21.5C6 21.78 6.22 22 6.5 22H17.5C17.78 22 18 21.78 18 21.5V20H6Z"/>
</svg>
