<svg width="24" height="24" viewBox="0 0 24 24" fill="none" xmlns="http://www.w3.org/2000/svg">
<path d="M8.20633 2.66681C8.1321 2.70588 7.99536 2.8348 7.9094 2.94811C7.57731 3.37787 7.42885 3.81545 7.42885 4.3468C7.42885 4.92112 7.60857 5.39387 7.99926 5.85489C8.28447 6.19089 8.36652 6.37451 8.36652 6.69098C8.36652 6.96056 8.25322 7.28093 8.11647 7.39032C8.01489 7.47628 7.89768 7.72632 7.89768 7.86307C7.89768 8.05841 8.03443 8.28111 8.21024 8.37097C8.51498 8.52725 8.79628 8.43348 9.05805 8.08967C9.39014 7.6599 9.53861 7.22232 9.53861 6.69098C9.53861 6.11665 9.35889 5.64391 8.96819 5.18289C8.68298 4.84689 8.60094 4.66326 8.60094 4.3468C8.60094 4.07722 8.71424 3.75685 8.85098 3.64745C8.95256 3.5615 9.06977 3.31145 9.06977 3.17471C9.06977 2.97936 8.93303 2.75667 8.75721 2.66681C8.56577 2.56913 8.38996 2.56913 8.20633 2.66681Z" fill="currentColor"/>
<path d="M11.7226 2.66681C11.6484 2.70588 11.5116 2.8348 11.4257 2.94811C11.0936 3.37787 10.9451 3.81545 10.9451 4.3468C10.9451 4.92112 11.1248 5.39387 11.5155 5.85489C11.8007 6.19089 11.8828 6.37451 11.8828 6.69098C11.8828 6.96056 11.7695 7.28093 11.6327 7.39032C11.5312 7.47628 11.4139 7.72632 11.4139 7.86307C11.4139 8.05841 11.5507 8.28111 11.7265 8.37097C12.0312 8.52725 12.3126 8.43348 12.5743 8.08967C12.9064 7.6599 13.0549 7.22232 13.0549 6.69098C13.0549 6.11665 12.8752 5.64391 12.4845 5.18289C12.1992 4.84689 12.1172 4.66326 12.1172 4.3468C12.1172 4.07722 12.2305 3.75685 12.3672 3.64745C12.4688 3.5615 12.586 3.31145 12.586 3.17471C12.586 2.97936 12.4493 2.75667 12.2735 2.66681C12.082 2.56913 11.9062 2.56913 11.7226 2.66681Z" fill="currentColor"/>
<path d="M15.2389 2.66681C15.1646 2.70588 15.0279 2.8348 14.9419 2.94811C14.6098 3.37787 14.4614 3.81545 14.4614 4.3468C14.4614 4.92112 14.6411 5.39387 15.0318 5.85489C15.317 6.19089 15.3991 6.37451 15.3991 6.69098C15.3991 6.96056 15.2857 7.28093 15.149 7.39032C15.0474 7.47628 14.9302 7.72632 14.9302 7.86307C14.9302 8.05841 15.067 8.28111 15.2428 8.37097C15.5475 8.52725 15.8288 8.43348 16.0906 8.08967C16.4227 7.6599 16.5711 7.22232 16.5711 6.69098C16.5711 6.11665 16.3914 5.64391 16.0007 5.18289C15.7155 4.84689 15.6335 4.66326 15.6335 4.3468C15.6335 4.07722 15.7468 3.75685 15.8835 3.64745C15.9851 3.5615 16.1023 3.31145 16.1023 3.17471C16.1023 2.97936 15.9656 2.75667 15.7897 2.66681C15.5983 2.56913 15.4225 2.56913 15.2389 2.66681Z" fill="currentColor"/>
<path d="M2.30292 10.8753C2.20915 10.9222 2.1232 11.0121 2.07241 11.1176C1.99427 11.266 1.99036 11.3207 2.0099 11.7505C2.03646 12.2198 2.11749 12.6763 2.20134 13.1375H21.7987C21.8825 12.6763 21.9635 12.2198 21.9901 11.7505C22.0096 11.3207 22.0057 11.266 21.9276 11.1176C21.8729 11.0043 21.7948 10.9261 21.6893 10.8714C21.5369 10.7933 21.4822 10.7933 11.9922 10.7933C2.56468 10.7972 2.44748 10.7972 2.30292 10.8753Z" fill="currentColor"/>
<path d="M2.70534 14.4013C2.94758 14.9444 3.35781 15.5812 3.81101 16.1204C4.47129 16.9135 5.2644 17.5308 6.24896 18.027L6.68654 18.2458V18.8904C6.68654 19.4111 6.68607 19.7462 7.14756 20H11.9961C16.7821 20 17 20 17 20C17.2696 19.8633 17.3135 19.6445 17.3135 18.8904V18.2497L17.7276 18.0465C18.6887 17.5738 19.6069 16.8471 20.2789 16.0188C20.6617 15.5539 21.0954 14.8584 21.3142 14.3623L21.4119 14.1396H2.58813L2.70534 14.4013Z" fill="currentColor"/>
</svg>
