<svg width="24" height="24" viewBox="0 0 24 24" xmlns="http://www.w3.org/2000/svg">
<path fill-rule="evenodd" clip-rule="evenodd" d="M11 5.5H13C13.28 5.5 13.5 5.28 13.5 5V2C13.5 1.72 13.28 1.5 13 1.5H11C10.72 1.5 10.5 1.72 10.5 2V5C10.5 5.28 10.72 5.5 11 5.5ZM11.5 19.5H16C16.28 19.5 16.5 19.28 16.5 19V18C16.5 17.72 16.28 17.5 16 17.5H11.5C11.22 17.5 11 17.72 11 18V19C11 19.28 11.22 19.5 11.5 19.5ZM10 20C10 20.28 10.22 20.5 10.5 20.5H16C16.28 20.5 16.5 20.72 16.5 21V22C16.5 22.28 16.28 22.5 16 22.5H8C7.72 22.5 7.5 22.28 7.5 22V16.5C7.5 14.83 8.04 13.17 9.02 11.82C9.93 10.56 10.51 9.1 10.51 7.55V7C10.51 6.72 10.73 6.5 11.01 6.5H13.01C13.29 6.5 13.51 6.72 13.51 7V7.55C13.51 9.1 14.09 10.56 15 11.82C15.87 13.04 16.39 14.49 16.49 15.98C16.5 16.26 16.27 16.5 15.98 16.5H10.5C10.22 16.5 10 16.72 10 17V20Z"/>
</svg>
