<svg width="24" height="24" viewBox="0 0 24 24" fill="none" xmlns="http://www.w3.org/2000/svg">
<path d="M6.79966 3.24159H10.4001V4.51207L10.0773 4.53276C9.51444 4.56587 9.09646 4.83486 8.87299 5.30664C8.77367 5.52184 8.76539 5.58805 8.75298 6.22536L8.73642 6.91233L8.48812 6.98268C7.57354 7.23926 6.94037 7.94693 6.77897 8.89876L6.75 9.07671H17.2284V8.94014C17.2284 8.86565 17.1994 8.70011 17.1622 8.57596C16.9387 7.8145 16.3138 7.19788 15.5482 6.98268L15.2958 6.91233L15.2751 6.24605C15.2585 5.6253 15.2502 5.56322 15.1385 5.32319C14.9192 4.82659 14.5136 4.56587 13.9301 4.53276L13.5866 4.51207V3.23745L18.4492 3.26228L18.6851 3.37815C18.9789 3.523 19.1734 3.73819 19.459 4.25135L19.6866 4.64864L19.9142 4.52035C20.5929 4.13548 20.746 4.04443 20.746 4.01546C20.746 3.99891 20.6094 3.75888 20.448 3.48161C20.0632 2.8443 19.7487 2.51737 19.281 2.28976C18.6685 1.98766 19.0244 2.00007 12.5851 2.00007H6.79966V3.24159Z" fill="currentColor"/>
<path d="M6.75 18.8399H17.2615V10.0665H6.75V18.8399Z" fill="currentColor"/>
<path d="M6.76655 20.3322C6.77897 20.7957 6.79552 20.8661 6.9114 21.1185C7.07279 21.4579 7.31696 21.7062 7.66872 21.8717L7.93772 22H16.0903L16.3262 21.8883C16.9759 21.5862 17.2987 20.982 17.2615 20.1336L17.2491 19.848L6.75 19.8273L6.76655 20.3322Z" fill="currentColor"/>
</svg>
