<svg width="24" height="24" viewBox="0 0 24 24" xmlns="http://www.w3.org/2000/svg">
<path fill-rule="evenodd" clip-rule="evenodd" d="M2 12C2 6.49 6.49 2 12 2C17.51 2 22 6.49 22 12C22 17.51 17.51 22 12 22C6.49 22 2 17.51 2 12ZM12.7258 14.21V16.25C12.7258 16.66 12.3968 17 12 17C11.6032 17 11.2742 16.66 11.2742 16.25V13.52C11.2742 13.11 11.6032 12.77 12 12.77C13.6839 12.77 15.0484 11.36 15.0484 9.64C15.0484 7.92 13.6839 6.5 12 6.5C10.3161 6.5 8.95161 7.91 8.95161 9.63C8.95161 10.04 8.62258 10.38 8.22581 10.38C7.82903 10.38 7.5 10.05 7.5 9.63C7.5 7.08 9.52258 5 12 5C14.4774 5 16.5 7.08 16.5 9.63C16.5 11.94 14.8645 13.85 12.7258 14.21ZM12 20C11.6032 20 11.2742 19.66 11.2742 19.25C11.2742 18.84 11.6032 18.5 12 18.5C12.3968 18.5 12.7258 18.84 12.7258 19.25C12.7258 19.66 12.3968 20 12 20Z"/>
</svg>
