<svg width="24" height="24" viewBox="0 0 24 24" xmlns="http://www.w3.org/2000/svg">
<path fill-rule="evenodd" clip-rule="evenodd" d="M13.5 3.5H10.5C10.22 3.5 10 3.28 10 3V2C10 1.72 10.22 1.5 10.5 1.5H13.5C13.78 1.5 14 1.72 14 2V3C14 3.28 13.78 3.5 13.5 3.5ZM13.14 4.64023L16.35 7.85023C16.45 7.95023 16.5 8.07023 16.5 8.21023V8.50023C16.5 8.78023 16.28 9.00023 16 9.00023H8C7.72 9.00023 7.5 8.78023 7.5 8.50023V8.21023C7.5 8.07023 7.55 7.95023 7.65 7.85023L10.85 4.64023C10.94 4.54023 11.07 4.49023 11.2 4.49023H12.79C12.92 4.49023 13.05 4.55023 13.14 4.64023ZM16 10H8C7.72 10 7.5 10.22 7.5 10.5V13.5C7.5 13.78 7.72 14 8 14H16C16.28 14 16.5 13.78 16.5 13.5V10.5C16.5 10.22 16.28 10 16 10ZM8 15H16C16.28 15 16.5 15.22 16.5 15.5V15.7C16.5 15.88 16.41 16.05 16.25 16.14C14.61 17.06 14.61 19.43 16.25 20.35C16.4 20.44 16.5 20.61 16.5 20.79V22C16.5 22.28 16.28 22.5 16 22.5H8C7.72 22.5 7.5 22.28 7.5 22V20.79C7.5 20.61 7.6 20.45 7.75 20.36C9.39 19.44 9.39 17.07 7.75 16.15C7.6 16.06 7.5 15.89 7.5 15.71V15.5C7.5 15.22 7.72 15 8 15Z"/>
</svg>
