<svg width="24" height="24" viewBox="0 0 24 24" fill="none" xmlns="http://www.w3.org/2000/svg">
<path fill-rule="evenodd" clip-rule="evenodd" d="M10.8651 22V16.3848C10.8651 15.6069 10.5561 14.8608 10.006 14.3108C9.45595 13.7607 8.7099 13.4517 7.932 13.4517C7.1541 13.4517 6.40806 13.7607 5.858 14.3108C5.30794 14.8608 4.99892 15.6069 4.99892 16.3848V22H2.24393V11.6492C3.2088 12.2481 4.33649 12.531 5.46978 12.4584C6.60308 12.3859 7.68549 11.9615 8.56611 11.2445C9.54267 12.0372 10.7622 12.4698 12.02 12.4698C13.2778 12.4698 14.4973 12.0372 15.4738 11.2445C16.3545 11.9615 17.4369 12.3859 18.5702 12.4584C19.7034 12.531 20.8311 12.2481 21.796 11.6492V22H10.8651ZM18.4274 14.9142L18.4193 19.4177C18.4178 20.0785 18.2042 20.2785 17.5434 20.28H13.9088C13.247 20.2785 13.05 20.0795 13.05 19.4177V14.9169C13.05 14.2555 13.2474 14.05 13.9088 14.05H17.5515C18.2129 14.05 18.4274 14.2528 18.4274 14.9142Z" fill="currentColor"/>
<path d="M14.0491 19.2855H17.4166V15.0518H14.0491V19.2855Z" fill="currentColor"/>
<path fill-rule="evenodd" clip-rule="evenodd" d="M1.62601 6.2L3.81436 2.84188C4.00231 2.58174 4.24922 2.36983 4.53484 2.2235C4.82047 2.07717 5.1367 2.00058 5.45764 2H18.5823C18.9032 2.00058 19.2195 2.07717 19.5051 2.2235C19.7907 2.36983 20.0376 2.58174 20.2256 2.84188L22.4139 6.2H1.62601ZM1 7.23476C1.05333 8.09775 1.45247 9.3022 2 9.97138C2.54753 10.6406 3.29157 11.1207 4.12692 11.3439C4.96226 11.567 5.84662 11.5219 6.65493 11.2149C7.46323 10.9079 8.15457 10.3546 8.63117 9.63317C9.00665 10.2066 9.519 10.6775 10.122 11.0034C10.725 11.3293 11.3996 11.5 12.085 11.5C12.7704 11.5 13.4451 11.3293 14.0481 11.0034C14.6511 10.6775 15.1634 10.2066 15.5389 9.63317C16.0155 10.3546 16.7068 10.9079 17.5151 11.2149C18.3234 11.5219 19.2078 11.567 20.0431 11.3439C20.8785 11.1207 21.6225 10.6406 22.1701 9.97138C22.7176 9.3022 22.965 8.09775 23.0184 7.23476H1ZM6.5 15.0518C6.20435 15.348 6.00142 15.9663 6 16.3848V22H9.87V16.3848C9.86929 15.9652 9.66697 15.3483 9.37 15.0518C8.60188 14.285 7.26764 14.2829 6.5 15.0518Z" fill="currentColor"/>
</svg>
