<svg width="24" height="24" viewBox="0 0 24 24" xmlns="http://www.w3.org/2000/svg">
<path fill-rule="evenodd" clip-rule="evenodd" d="M15.9999 2.5V3.79C15.9999 3.93 15.9499 4.05 15.8599 4.14L13.1499 6.85C13.0599 6.95 12.9299 7 12.7999 7H6.20994C5.75994 7 5.53994 6.46 5.84994 6.14L7.84994 4.14C7.94994 4.05 7.99994 3.92 7.99994 3.79V2.5C7.99994 2.22 8.21994 2 8.49994 2H15.4999C15.7799 2 15.9999 2.22 15.9999 2.5ZM5.5 8H12.5C12.78 8 13 8.22 13 8.5V21.5C13 21.78 12.78 22 12.5 22H5.5C5.22 22 5 21.78 5 21.5V8.5C5 8.22 5.22 8 5.5 8ZM18.5 8H14.5C14.22 8 14 8.22 14 8.5V21.5C14 21.78 14.22 22 14.5 22H18.5C18.78 22 19 21.78 19 21.5V8.5C19 8.22 18.78 8 18.5 8ZM17.79 7.00016H15.62C15.18 7.00016 14.95 6.46016 15.25 6.15016L16.34 5.06016C16.54 4.86016 16.85 4.86016 17.05 5.06016L18.14 6.15016C18.46 6.46016 18.24 7.00016 17.79 7.00016Z"/>
</svg>
