<svg width="24" height="24" viewBox="0 0 24 24" xmlns="http://www.w3.org/2000/svg">
<path fill-rule="evenodd" clip-rule="evenodd" d="M20.5015 12.5274H22.0247C22.3443 12.5274 22.5999 12.7941 22.5999 13.1034C22.3869 15.2154 21.556 17.1461 20.2884 18.7034C20.0967 18.9487 19.7239 18.9594 19.5002 18.7354L18.4244 17.6581C18.2113 17.4447 17.8811 17.4447 17.6681 17.6581C17.455 17.8714 17.455 18.2021 17.6681 18.4154L18.7439 19.4927C18.9676 19.7167 18.957 20.09 18.712 20.282C17.1461 21.5514 15.2288 22.3834 13.1197 22.5967C12.8001 22.6287 12.5339 22.3727 12.5339 22.0634V20.538C12.5339 20.2394 12.2995 20.0047 12.0013 20.0047C11.703 20.0047 11.4687 20.2394 11.4687 20.538V22.0634C11.4687 22.3727 11.1917 22.6287 10.8828 22.5967C8.77373 22.3834 6.85638 21.5514 5.30121 20.282C5.05621 20.09 5.04556 19.7167 5.26925 19.4927L6.34509 18.4154C6.55813 18.2021 6.55813 17.8714 6.34509 17.6581C6.13205 17.4447 5.80185 17.4447 5.58881 17.6581L4.51296 18.7354C4.28927 18.9594 3.91646 18.9487 3.72472 18.7034C2.45715 17.1461 1.6263 15.2261 1.41326 13.1141C1.3813 12.7941 1.63695 12.5274 1.94585 12.5274H3.45843C3.75668 12.5274 3.99102 12.3034 3.99102 12.0047C3.99102 11.7061 3.75668 11.4714 3.45843 11.4714H1.9352C1.6263 11.4714 1.37065 11.1941 1.40261 10.8848C1.6263 8.77276 2.44649 6.85277 3.71407 5.29544C3.90581 5.05011 4.27862 5.03944 4.50231 5.26344L5.58881 6.34077C5.68467 6.44744 5.82315 6.50077 5.96162 6.50077C6.1001 6.50077 6.22792 6.44744 6.33444 6.35144C6.54748 6.1381 6.54748 5.80744 6.33444 5.59411L5.2586 4.50611C5.03491 4.29278 5.04556 3.91945 5.29055 3.71678C6.84573 2.45812 8.76307 1.62612 10.8615 1.41279C11.1811 1.38079 11.4474 1.63679 11.4474 1.94612V3.46078C11.4474 3.75945 11.671 3.99411 11.9693 3.99411C12.2676 3.99411 12.5019 3.75945 12.5019 3.46078V1.93545C12.5019 1.62612 12.7788 1.37012 13.0877 1.40212C15.1968 1.62612 17.1142 2.45812 18.6693 3.71678C18.9143 3.90878 18.925 4.28211 18.7013 4.50611L17.6255 5.58344C17.4124 5.79677 17.4124 6.12744 17.6255 6.34077C17.732 6.43677 17.8811 6.50077 18.0089 6.50077C18.1368 6.50077 18.2752 6.44744 18.3817 6.34077L19.4576 5.25277C19.6813 5.02877 20.0541 5.03944 20.2458 5.28477C21.5028 6.8421 22.3336 8.76209 22.5573 10.8741C22.5893 11.1941 22.3336 11.4608 22.0247 11.4608H20.5015C20.2032 11.4608 19.9689 11.6954 19.9689 11.9941C19.9689 12.2927 20.2032 12.5274 20.5015 12.5274ZM6.66465 12.0047C6.66465 14.9487 9.05068 17.3381 11.9906 17.3381C14.9199 17.3381 17.3166 14.9487 17.3166 12.0047C17.3166 9.06076 14.9305 6.67144 11.9906 6.67144C9.05068 6.67144 6.66465 9.06076 6.66465 12.0047ZM16.2515 12.004C16.2515 14.3604 14.3439 16.2706 11.9907 16.2706C9.63759 16.2706 7.72998 14.3604 7.72998 12.004C7.72998 9.64755 9.63759 7.7373 11.9907 7.7373C14.3439 7.7373 16.2515 9.64755 16.2515 12.004Z"/>
</svg>
